<svg width="42" height="170" viewBox="0 0 42 170" fill="none" xmlns="http://www.w3.org/2000/svg">
<path d="M4.19996 3.13743C2.99996 5.80409 2.59996 18.3374 2.46663 45.5374C2.46663 87.4041 3.26663 94.8708 11.1333 125.271L14.8666 139.804L7.79996 142.871C-3.13337 147.804 -2.86671 149.804 10.4666 160.471C19.4 167.671 22.3333 169.004 28.7333 169.137C36.8666 169.271 38.4666 166.471 40.3333 149.404C41.9333 135.937 41.8 134.871 39.5333 133.137C38.0666 132.071 35.6666 131.671 33.1333 132.337C25.1333 134.071 24.2 133.804 22.3333 128.471C19.2666 119.804 13.9333 94.2041 11.8 77.5374C10.6 68.7374 9.26663 47.8041 8.86663 31.1374C8.46663 14.4708 7.53329 0.47076 6.86663 0.0707599C6.33329 -0.32924 5.13329 1.00409 4.19996 3.13743Z" fill="white"/>
</svg>
